<?xml version="1.0" encoding="utf-8"?>
<!-- Generator: Adobe Illustrator 25.0.0, SVG Export Plug-In . SVG Version: 6.00 Build 0)  -->
<svg version="1.1" id="Layer_1" xmlns="http://www.w3.org/2000/svg" xmlns:xlink="http://www.w3.org/1999/xlink" x="0px" y="0px"
	 viewBox="0 0 48.9 66.6" style="enable-background:new 0 0 48.9 66.6;" xml:space="preserve">
<style type="text/css">
	.st0{fill:#8CC63F;}
</style>
<path class="st0" d="M8.2,61.8c-1.8-1-3.3-2.3-4.7-3.7l6.1-8.5c4,3.4,8.4,5.2,12.4,5.2c6.4,0,10.2-2.7,10.2-7.1
	c0-6.1-4.2-8.5-15.3-8.6V30c6.1-0.1,13.4-1.3,13.4-8.2c0-4.4-2.8-6.9-7.7-6.9c-4.1,0-7.1,1.6-10.7,4.5l-6.7-8.1
	C11,6.6,16.8,4.5,23.3,4.5c13.1,0,21,6,21,16c0,5.4-3,9.4-9.1,12.1l-0.8,0.3v2.2l0.9,0.3c7,2.1,10.9,6.9,10.9,13.5h2.6
	c0-7-3.6-12.2-10.3-15.1c5.5-3.1,8.4-7.6,8.4-13.3c0.2-5.4-2.3-10.6-6.6-13.9c-4.1-3.1-10-4.8-17-4.8C15.9,1.8,9.1,4.5,2.5,10
	l-1,0.8l10,12l1-0.8c3.6-3.1,6.3-4.7,10-4.7c2.2,0,5.1,0.4,5.1,4.3c0,2.8-1.4,5.7-12.1,5.7h-1.3v14.2h1.3c14,0,14,3.4,14,6.1
	c0,3.9-4.8,4.5-7.6,4.5c-3.7,0-7.9-1.9-11.7-5.5l-1.1-1L0.1,58l0.7,1c2,2.4,4.5,4.3,7.3,5.8L8.2,61.8L8.2,61.8z"/>
</svg>
