<?xml version="1.0" encoding="utf-8"?>
<!-- Generator: Adobe Illustrator 25.0.0, SVG Export Plug-In . SVG Version: 6.00 Build 0)  -->
<svg version="1.1" id="Layer_1" xmlns="http://www.w3.org/2000/svg" xmlns:xlink="http://www.w3.org/1999/xlink" x="0px" y="0px"
	 viewBox="0 0 48.9 66.6" style="enable-background:new 0 0 48.9 66.6;" xml:space="preserve">
<style type="text/css">
	.st0{fill:#8CC63F;}
</style>
<path class="st0" d="M2.1,54.1l-0.8,0.7v11.5H8v-2.6H3.9V56c15.1-13.9,26-24,26-32.9c0-6-3.3-9.5-8.9-9.5c-4.3,0-7.6,2.9-10.2,5.3
	l-7.2-7.2C9.8,5.4,15.3,3,23.3,3c12,0,20,7.7,20,19.1c0,9.6-9.3,20.3-17.4,28.7l-2.6,2.7L27,53c3.4-0.4,6.8-0.7,10.2-0.8h9.1v2.6
	h2.6v-5.2H37.2c-1.9,0-4.5,0.2-7,0.4C38.1,41.7,46,31.6,46,22.1c0-6.4-2.2-11.8-6.4-15.8c-4.1-3.9-9.7-5.9-16.3-5.9
	c-9.1,0-15.4,2.9-22.5,10.4L0,11.7l10.8,10.8l0.9-0.9c3-3,5.8-5.5,9.3-5.5c4.1,0,6.3,2.4,6.3,6.9C27.3,30.8,16.2,41.1,2.1,54.1z"/>
</svg>
